<svg width="1024" height="1024" viewBox="0 0 1024 1024" fill="none" xmlns="http://www.w3.org/2000/svg">
<rect width="1024" height="1024" rx="512" fill="#0A0A0A"/>
<path d="M750.769 295.385V332.887C750.769 351.6 735.6 366.769 716.887 366.769H471.385H225.882C207.17 366.769 192 381.939 192 400.652V439.385V478.118C192 496.83 207.17 512 225.882 512H231.385H236.887C255.6 512 270.769 527.17 270.769 545.882V583.385V620.887C270.769 639.6 285.939 654.769 304.652 654.769H311.385H318.118C336.83 654.769 352 669.939 352 688.652V727.385V766.118C352 784.83 367.17 800 385.882 800H391.385H396.887C415.6 800 430.769 784.83 430.769 766.118V727.385V688.652C430.769 669.939 445.939 654.769 464.652 654.769H510.769H556.887C575.6 654.769 590.769 669.939 590.769 688.652V727.385V766.118C590.769 784.83 605.939 800 624.652 800H631.385H638.118C656.83 800 672 784.83 672 766.118V727.385V688.652C672 669.939 687.17 654.769 705.882 654.769H711.385H716.887C735.6 654.769 750.769 639.6 750.769 620.887V583.385V545.882C750.769 527.17 765.939 512 784.652 512H791.385H798.118C816.83 512 832 496.83 832 478.118V368V257.882C832 239.17 816.83 224 798.118 224H791.385H784.652C765.939 224 750.769 239.17 750.769 257.882V295.385Z" fill="#FAFAFA"/>
</svg>
