<svg viewBox="0 0 512 461" fill="none" xmlns="http://www.w3.org/2000/svg">
<path d="M447.015 57.1076V87.1094C447.015 102.08 434.88 114.215 419.91 114.215H223.508H27.1059C12.1357 114.215 0 126.351 0 141.321V172.308V203.294C0 218.264 12.1357 230.4 27.1059 230.4H31.5077H35.9095C50.8797 230.4 63.0154 242.536 63.0154 257.506V287.508V317.509C63.0154 332.48 75.1511 344.615 90.1213 344.615H95.5077H100.894C115.864 344.615 128 356.751 128 371.721V402.708V433.694C128 448.664 140.136 460.8 155.106 460.8H159.508H163.91C178.88 460.8 191.015 448.664 191.015 433.694V402.708V371.721C191.015 356.751 203.151 344.615 218.121 344.615H255.015H291.91C306.88 344.615 319.015 356.751 319.015 371.721V402.708V433.694C319.015 448.664 331.151 460.8 346.121 460.8H351.508H356.894C371.864 460.8 384 448.664 384 433.694V402.708V371.721C384 356.751 396.136 344.615 411.106 344.615H415.508H419.91C434.88 344.615 447.015 332.48 447.015 317.509V287.508V257.506C447.015 242.536 459.151 230.4 474.121 230.4H479.508H484.894C499.864 230.4 512 218.264 512 203.294V115.2V27.1058C512 12.1357 499.864 -6.10352e-05 484.894 -6.10352e-05H479.508H474.121C459.151 -6.10352e-05 447.015 12.1357 447.015 27.1058V57.1076Z" fill="#FAFAFA"/>
</svg>
