<svg viewBox="0 0 285 256" xmlns="http://www.w3.org/2000/svg">
    <path d="M248.342 31.7265V47.453C248.342 56.2895 241.178 63.453 232.342 63.453H124.171H16C7.16345 63.453 0 70.6164 0 79.453V95.7265V112C0 120.837 7.16345 128 16 128H17.5043H19.0085C27.8451 128 35.0085 135.163 35.0085 144V159.726V175.453C35.0085 184.29 42.172 191.453 51.0086 191.453H53.0598H55.1111C63.9477 191.453 71.1111 198.616 71.1111 207.453V223.726V240C71.1111 248.837 78.2746 256 87.1111 256H88.6154H90.1197C98.9562 256 106.12 248.837 106.12 240V223.726V207.453C106.12 198.616 113.283 191.453 122.12 191.453H141.675H161.231C170.067 191.453 177.231 198.616 177.231 207.453V223.726V240C177.231 248.837 184.394 256 193.231 256H195.282H197.333C206.17 256 213.333 248.837 213.333 240V223.726V207.453C213.333 198.616 220.497 191.453 229.333 191.453H230.838H232.342C241.178 191.453 248.342 184.29 248.342 175.453V159.726V144C248.342 135.163 255.505 128 264.342 128H266.393H268.444C277.281 128 284.444 120.837 284.444 112V64V16C284.444 7.16344 277.281 -2.17557e-06 268.444 -2.17557e-06H266.393H264.342C255.505 -2.17557e-06 248.342 7.16344 248.342 16V31.7265Z" fill="currentColor"/>
</svg>
