<svg width="512" height="512" viewBox="0 0 512 512" fill="none" xmlns="http://www.w3.org/2000/svg">
<rect width="512" height="512" rx="256" fill="#0A0A0A"/>
<path d="M368.752 153.709V171.419C368.752 180.255 361.589 187.419 352.752 187.419H236.821H120.889C112.052 187.419 104.889 194.582 104.889 203.419V221.709V240C104.889 248.837 112.052 256 120.889 256H123.487H126.085C134.922 256 142.085 263.163 142.085 272V289.709V307.419C142.085 316.255 149.249 323.419 158.085 323.419H161.265H164.444C173.281 323.419 180.444 330.582 180.444 339.419V357.709V376C180.444 384.837 187.608 392 196.444 392H199.043H201.641C210.478 392 217.641 384.837 217.641 376V357.709V339.419C217.641 330.582 224.804 323.419 233.641 323.419H255.419H277.197C286.033 323.419 293.197 330.582 293.197 339.419V357.709V376C293.197 384.837 300.36 392 309.197 392H312.376H315.556C324.392 392 331.556 384.837 331.556 376V357.709V339.419C331.556 330.582 338.719 323.419 347.556 323.419H350.154H352.752C361.589 323.419 368.752 316.255 368.752 307.419V289.709V272C368.752 263.163 375.916 256 384.752 256H387.932H391.111C399.948 256 407.111 248.837 407.111 240V188V136C407.111 127.163 399.948 120 391.111 120H387.932H384.752C375.916 120 368.752 127.163 368.752 136V153.709Z" fill="#FAFAFA"/>
</svg>
